<?xml version="1.0" encoding="UTF-8"?>
<svg xmlns="http://www.w3.org/2000/svg" xmlns:xlink="http://www.w3.org/1999/xlink" version="1.1" viewBox="0 0 72 72">
  <!-- Generator: Adobe Illustrator 29.5.0, SVG Export Plug-In . SVG Version: 2.1.0 Build 137)  -->
  <defs>
    <style>
      .st0 {
        mask: url(#mask);
      }

      .st1 {
        font-size: 12px;
      }

      .st1, .st2, .st3 {
        fill: #fff;
      }

      .st1, .st3 {
        font-family: BebasNeue-Regular, 'Bebas Neue';
      }

      .st4 {
        filter: url(#luminosity-invert-noclip);
      }

      .st3 {
        font-size: 6.69px;
      }
    </style>
    <filter id="luminosity-invert-noclip" x="12.44" y="11.91" width="46.9" height="51.67" color-interpolation-filters="sRGB" filterUnits="userSpaceOnUse">
      <feColorMatrix result="cm" values="-1 0 0 0 1 0 -1 0 0 1 0 0 -1 0 1 0 0 0 1 0"/>
      <feFlood flood-color="#fff" result="bg"/>
      <feBlend in="cm" in2="bg"/>
    </filter>
    <mask id="mask" x="12.44" y="11.91" width="46.9" height="51.67" maskUnits="userSpaceOnUse">
      <g class="st4">
        <path class="st2" d="M37.77,63.58c-.23,0-.45-.04-.65-.13l-.06-.03-.02-.06c-.1-.32-.19-.42-.29-.53-.19-.21-.36-.41-.56-1.73-.1-.65-.16-3.94-.19-6.09-.03,2.15-.09,5.45-.19,6.09-.2,1.32-.38,1.52-.56,1.73-.1.11-.18.21-.29.53l-.02.06-.06.03c-.2.08-.42.13-.65.13-.71,0-1.31-.41-1.34-.43-.4-.26-.42-.66-.44-1.05-.01-.21-.02-.42-.09-.63-.82-1.32-1.83-3.54-1.91-6.49-.03-1.2.1-2,.21-2.71.1-.65.2-1.26.16-2.08-.08-1.67-.95-3.42-1.23-3.83-.28-.4-.89-2.57-.96-2.81,0-.05-.09-2-.48-3-.01-.07-.06-.17-.1-.24-.09-.19-.15-.32-.16-.41-.11-.62-1.41-2.39-1.9-3.01-.16-.22-.38-.5-.51-.94l-.03-.12h0c-.02-.11-.02-.19-.02-.22.06-1.38-.21-2.08-.81-3.06-.67-.63-.63-1.58-.63-1.62,0-.36.07-.71.23-1.02.24-.37.39-.52.55-.69l.11-.12c-.11-2.83,1.03-4.45,1.27-4.76-.02-.17-.06-.62.04-1.07.55-.68,1.15-1.42,1.12-1.73,0-.17-.01-.34-.02-.52-.03-.59-.07-1.26.08-1.68l.02-.05.05-.03c.97-.49,1.14-.9,1.14-.91-.02-.24-.04-1.21.05-1.41.46-.99,2.3-3.23,2.32-3.25.15-.09.28-.18.43-.28.8-.52,2.3-1.49,4.49-1.49h.24c2.19,0,3.69.97,4.49,1.49.15.1.28.18.39.24.06.06,1.9,2.29,2.36,3.29.09.2.07,1.17.06,1.46h0s.22.39,1.13.86l.05.03.02.05c.15.43.11,1.09.08,1.68-.01.18-.02.35-.02.51-.03.32.57,1.07,1.09,1.68.13.5.09.96.07,1.13.24.31,1.38,1.93,1.27,4.76l.11.12c.16.17.31.31.54.67.17.33.25.68.24,1.05,0,.03.04.98-.66,1.64-.57.95-.84,1.66-.78,3.04,0,.03,0,.1-.02.21h0s-.03.12-.03.12c-.13.44-.34.72-.48.91-.51.66-1.81,2.42-1.92,3.05,0,.09-.07.22-.16.4-.04.07-.09.17-.09.2-.4,1.05-.48,2.99-.48,3.01-.07.28-.68,2.45-.96,2.85-.29.42-1.15,2.17-1.23,3.83-.04.82.06,1.43.16,2.08.11.71.24,1.51.21,2.71-.08,2.95-1.09,5.17-1.93,6.52-.05.18-.06.39-.07.6-.02.39-.04.79-.45,1.05-.02.01-.62.43-1.33.43Z"/>
      </g>
    </mask>
    <path id="path" d="M63.95,36.57c0,15.51-12.57,28.08-28.08,28.08S7.79,52.07,7.79,36.57s12.57-28.08,28.08-28.08,28.08,12.57,28.08,28.08Z"/>
  </defs>
  <g id="Logo">
    <circle id="Circle" cx="36" cy="36" r="36"/>
    <g class="st0">
      <g id="Wrench">
        <path class="st2" d="M15.02,25.45c.6.36,1.59.33,1.94-.41.35-.74-.28-1.22-.28-1.22l-2.25-1.36-.87-.53c.89-.47,2.37-.28,3.25.05.51.2,1.06.56,1.41.81.46.37.83.93,1.07,1.41.47.94,1.02,1.83,1.7,2.41.58.56,1.1.76,1.35.91l25.99,15.86,3.85,2.33s1.71,1.23,3.52.85c1.51.14,1.71.68,1.89.8,0,0,1.73,1.49,1.74,3.71,0,0-1.95-1.27-2.55-1.64-.26-.18-.56.16-.56.16l-.6.59s-.59.57.15,1.19c.74.61,2.41,1.96,2.41,1.96,0,0-.87.24-2.49.04-1.62-.2-2.18-1.37-2.38-1.61,0,0-.24-.59-.43-1.68-.08-.49-1.92-1.3-2.45-1.69l-1.88-1.16s-27.06-16.45-27.06-16.45c-1.18-.69-2.42-1.43-2.7-1.61-.48-.27-1.51.15-2.07.12-1.44-.08-2.53-1.2-2.8-1.48-.81-.92-1.22-1.73-1.38-2.45-.07-.4-.12-1.69-.12-1.69,0,0,1.98,1.4,2.58,1.76ZM15.95,28.79c.21.05.71.32,1.3.07,0,0-1-.2-2.54-1.51-.31-.29-1.11-1.13-1.63-1.96-.13.38,1.08,2.85,2.87,3.41Z"/>
        <path class="st2" d="M56.76,25.45c-.6.36-1.59.33-1.94-.41-.35-.74.28-1.22.28-1.22l2.25-1.36.87-.53c-.89-.47-2.37-.28-3.25.05-.51.2-1.06.56-1.41.81-.46.37-.83.93-1.07,1.41-.47.94-1.02,1.83-1.7,2.41-.58.56-1.1.76-1.35.91l-25.99,15.86-3.85,2.33s-1.71,1.23-3.52.85c-1.51.14-1.71.68-1.89.8,0,0-1.73,1.49-1.74,3.71,0,0,1.95-1.27,2.55-1.64.26-.18.56.16.56.16l.6.59s.59.57-.15,1.19c-.74.61-2.41,1.96-2.41,1.96,0,0,.87.24,2.49.04,1.62-.2,2.18-1.37,2.38-1.61,0,0,.24-.59.43-1.68.08-.49,1.92-1.3,2.45-1.69l1.88-1.16s27.06-16.45,27.06-16.45c1.18-.69,2.42-1.43,2.7-1.61.48-.27,1.51.15,2.07.12,1.44-.08,2.53-1.2,2.8-1.48.81-.92,1.22-1.73,1.38-2.45.07-.4.12-1.69.12-1.69,0,0-1.98,1.4-2.58,1.76ZM55.84,28.79c-.21.05-.71.32-1.3.07,0,0,1-.2,2.54-1.51.31-.29,1.11-1.13,1.63-1.96.13.38-1.08,2.85-2.87,3.41Z"/>
      </g>
    </g>
    <g id="Skull">
      <g>
        <path id="Inner" class="st2" d="M37.89,52.68c0,.14-.09.98-.47,1-.11.02-.34-.1-.49-.24-.17-.18-.4-.48-.47-.64-.08.08-.14.19-.34.14,0-.14.02-18.71.02-18.71,0,0,2.04,2.81,2.9,6.15l-1.14,2.17v9.54s.01,0-.02.59Z"/>
        <path id="Outer" class="st2" d="M36,12.05c2.63-.04,4.25,1.34,4.93,1.72.34.41,1.89,2.34,2.3,3.22.09.19.04,1.4.04,1.4,0,0,.16.45,1.21.98.18.52.07,1.47.05,2.14-.03.29.29.8,1.13,1.78.13.53.03,1.08.03,1.08,0,0,1.42,1.67,1.27,4.78.24.26.38.36.68.81.14.27.23.6.22.97,0,.04.04.93-.61,1.54-.61,1-.88,1.73-.83,3.15,0,.02,0,.13-.04.28h0c-.13.44-.35.72-.48.89,0,0-1.79,2.28-1.93,3.09-.02.15-.27.55-.25.62-.4,1.04-.48,3.02-.48,3.02,0,0-.66,2.38-.94,2.77-.27.39-1.17,2.17-1.26,3.91-.09,1.74.43,2.5.37,4.79-.08,3.02-1.14,5.21-1.9,6.45-.2.63.06,1.26-.48,1.61,0,0-.96.66-1.85.29-.31-.94-.54-.2-.85-2.24-.14-.94-.21-7.77-.21-7.96,0,0,.7.88,1.23.93.76.07.66-1.54.66-1.9,1.2.54,1.75,1.98,1.67,3.25.3-1.23-.4-2.92-1.67-3.5,0,0-.01-9.33-.01-9.33l1.07-2.04c.06.26.12.52.16.79.14.43.29,1.28.31,1.47s.92-.06,1.08-1.82c.17-1.77.17-3.15.87-4.69.07-.5-.48-.32-.77-.12,0,0-1.55.44-1.8,2.96-1.02-2.86-2.79-5.22-2.79-5.22,0,0,0-10.23-.01-11.78,0-.49-.12-.43-.12-.43M38.1,54.63s-1.21.08-1.08,2.4c.18,1.65.57,2.94.68,3.23.12.28.64-.32.83-.78,0-3.13-.41-3.03-.43-4.85ZM44.36,36.47c1.31.22,1.73-.84,1.73-.84-.06-1.49.24-2.29.87-3.34.6-.58.56-1.35.56-1.35.03-1.5-1.64-1.94-1.64-1.94-.17,1.19-.57,2.38-.79,2.61-.56.6-1.7,1.97-2.02,2.91-.06.17-.04,1.71,1.28,1.94ZM42.7,29.01c.22-.44-.13-.75-.39-.75,0,0-.58.34-.66.53-.08.18,1,.62,1.05.23ZM41.76,31.02c.18.03.58-.65.57-.73-.02-.08-.18-.38-.3-.38-.26.03-.73.5-.73.73,0,.15.28.35.46.38ZM44.74,26.95c.88,1.53,1.29,1.07,1.29.88-.43-.92-4.56-8.39-4.56-8.39,0,0-.17-.25-.29,0-.13.8,2.83,6.07,3.55,7.51Z"/>
      </g>
      <g>
        <path id="Inner1" data-name="Inner" class="st2" d="M34.11,52.68c0,.14.09.98.47,1,.11.02.34-.1.49-.24.17-.18.4-.48.47-.64.08.08.14.19.34.14,0-.14-.02-18.71-.02-18.71,0,0-2.04,2.81-2.9,6.15l1.14,2.17v9.54s-.01,0,.02.59Z"/>
        <path id="Outer1" data-name="Outer" class="st2" d="M36,12.05c-2.63-.04-4.25,1.34-4.93,1.72-.34.41-1.89,2.34-2.3,3.22-.09.19-.04,1.4-.04,1.4,0,0-.16.45-1.21.98-.18.52-.07,1.47-.05,2.14.03.29-.29.8-1.13,1.78-.13.53-.03,1.08-.03,1.08,0,0-1.42,1.67-1.27,4.78-.24.26-.38.36-.68.81-.14.27-.23.6-.22.97,0,.04-.04.93.61,1.54.61,1,.88,1.73.83,3.15,0,.02,0,.13.04.28h0c.13.44.35.72.48.89,0,0,1.79,2.28,1.93,3.09.02.15.27.55.25.62.4,1.04.48,3.02.48,3.02,0,0,.66,2.38.94,2.77.27.39,1.17,2.17,1.26,3.91.09,1.74-.43,2.5-.37,4.79.08,3.02,1.14,5.21,1.9,6.45.2.63-.06,1.26.48,1.61,0,0,.96.66,1.85.29.31-.94.54-.2.85-2.24.14-.94.21-7.77.21-7.96,0,0-.7.88-1.23.93-.76.07-.66-1.54-.66-1.9-1.2.54-1.75,1.98-1.67,3.25-.3-1.23.4-2.92,1.67-3.5,0,0,.01-9.33.01-9.33l-1.07-2.04c-.06.26-.12.52-.16.79-.14.43-.29,1.28-.31,1.47s-.92-.06-1.08-1.82c-.17-1.77-.17-3.15-.87-4.69-.07-.5.48-.32.77-.12,0,0,1.55.44,1.8,2.96,1.02-2.86,2.79-5.22,2.79-5.22,0,0,0-10.23.01-11.78,0-.49.12-.43.12-.43M33.9,54.63s1.21.08,1.08,2.4c-.18,1.65-.57,2.94-.68,3.23-.12.28-.64-.32-.83-.78,0-3.13.41-3.03.43-4.85ZM27.64,36.47c-1.31.22-1.73-.84-1.73-.84.06-1.49-.24-2.29-.87-3.34-.6-.58-.56-1.35-.56-1.35-.03-1.5,1.64-1.94,1.64-1.94.17,1.19.57,2.38.79,2.61.56.6,1.7,1.97,2.02,2.91.06.17.04,1.71-1.28,1.94ZM29.3,29.01c-.22-.44.13-.75.39-.75,0,0,.58.34.66.53.08.18-1,.62-1.05.23ZM30.24,31.02c-.18.03-.58-.65-.57-.73.02-.08.18-.38.3-.38.26.03.73.5.73.73,0,.15-.28.35-.46.38ZM27.26,26.95c-.88,1.53-1.29,1.07-1.29.88.43-.92,4.56-8.39,4.56-8.39,0,0,.17-.25.29,0,.13.8-2.83,6.07-3.55,7.51Z"/>
      </g>
    </g>
  </g>
  <g id="Text">
    <text id="Right_numbers" class="st1" transform="translate(9.56 41.3)"><tspan x="0" y="0">29</tspan></text>
    <text id="Left_numbers" class="st1" transform="translate(51.84 41.3)"><tspan x="0" y="0">72</tspan></text>
    <text id="Title">
      <textPath startOffset="10466.67%" xlink:href="#path"><tspan class="st3"><tspan x="0" y="0">gears &amp; buccaneers</tspan></tspan>
      </textPath></text>
  </g>
</svg>